<svg width="206" height="40" viewBox="0 0 206 40" fill="none" xmlns="http://www.w3.org/2000/svg">
    <path fill-rule="evenodd" clip-rule="evenodd" d="M15.3065 2.91196C15.9918 1.54632 17.4091 0.443724 18.8918 0.122824C22.6236 -0.684804 26.0351 2.61716 25.285 6.31064C25.128 7.08317 24.9229 7.60641 24.5468 8.1926L24.2881 8.59596L27.8852 12.1847L31.4823 15.7735L31.9804 15.4668C34.0609 14.1855 36.7687 14.4951 38.4794 16.2097C39.1548 16.8867 39.6184 17.6308 39.8816 18.4609C40.1442 19.2886 40.1442 20.7181 39.8816 21.5457C39.1795 23.7593 37.0633 25.3314 34.7772 25.3377C33.8472 25.3402 32.6149 24.9708 31.8145 24.4495L31.5843 24.2995L31.0514 24.8402C30.7583 25.1375 29.1639 26.7962 27.5082 28.526L24.4978 31.6713L24.8269 32.3195C25.2604 33.1737 25.4308 33.9993 25.3737 34.9686C25.2919 36.3591 24.789 37.4558 23.7671 38.4719C22.0582 40.1712 19.4209 40.488 17.312 39.2474C16.5367 38.7914 15.7174 37.9115 15.307 37.0946C14.8321 36.1494 14.6739 35.3748 14.7361 34.2996L14.7844 33.4638L12.28 32.2167L9.77561 30.9696L9.63731 31.1766C9.37658 31.567 8.5481 32.3008 8.01227 32.616C7.1436 33.1271 6.46729 33.3007 5.34533 33.3007C4.58496 33.3007 4.26214 33.2622 3.79935 33.116C1.56888 32.4119 0 30.3021 0 28.007C0 25.5301 1.82292 23.2953 4.25897 22.7858C5.1212 22.6054 6.20907 22.6716 7.02293 22.9539C7.50795 23.1223 7.66079 23.1463 7.7345 23.0657C7.78614 23.0092 8.30501 22.2258 8.88746 21.3248L9.94658 19.6866L8.76546 17.6981C8.11581 16.6045 7.55591 15.6793 7.52123 15.6423C7.48656 15.6052 7.2178 15.6592 6.92407 15.7622C6.15442 16.0322 4.63293 16.0384 3.79935 15.7748C1.56821 15.0696 0 12.9607 0 10.6656C0 7.76424 2.43722 5.33268 5.34533 5.33268C7.05084 5.33268 8.72225 6.20918 9.70433 7.6185L10.1293 8.22845L10.7666 7.99359C11.1171 7.86445 12.1641 7.48419 13.0933 7.1487L14.7827 6.53866L14.7352 5.70494C14.6742 4.63219 14.833 3.85582 15.3065 2.91196ZM23.9395 4.38707C23.5621 2.94131 22.4519 1.83012 21.0105 1.45553C18.1534 0.7131 15.4256 3.43454 16.1698 6.28504C16.7279 8.42296 18.9229 9.7465 21.0105 9.20399C23.1507 8.64782 24.4808 6.46029 23.9395 4.38707ZM9.23184 9.7229C8.85437 8.27714 7.74419 7.16596 6.30284 6.79136C3.44336 6.04827 0.717251 8.76804 1.46208 11.6209C2.02114 13.7623 4.21175 15.0832 6.30284 14.5398C8.44297 13.9836 9.7731 11.7961 9.23184 9.7229ZM16.3253 9.15856C16.2054 9.04742 15.9356 8.7126 15.7259 8.41454C15.516 8.11648 15.3227 7.84944 15.2962 7.8211C15.207 7.7258 10.5658 9.48179 10.598 9.59868C10.7065 9.99345 10.6948 11.1101 10.5763 11.6661C10.503 12.01 10.443 12.3296 10.443 12.3765C10.4429 12.4669 13.5907 14.0619 13.6411 13.997C13.8505 13.7279 16.5432 9.5013 16.5432 9.44202C16.5432 9.39725 16.4451 9.26978 16.3253 9.15856ZM30.5177 16.7297L26.9362 13.1557C24.9663 11.19 23.335 9.58175 23.311 9.58175C23.287 9.58175 23.124 9.67897 22.9488 9.79769C21.6933 10.6488 19.8258 10.886 18.3665 10.3797C17.8882 10.2138 17.7375 10.1905 17.6633 10.2712C17.5415 10.4036 14.9519 14.4129 14.8985 14.5519C14.8749 14.6131 15.0018 14.7302 15.2021 14.8321L15.5461 15.0072L16.2327 14.3092C16.7841 13.7487 17.0592 13.5424 17.6296 13.2624C18.4284 12.8702 19.249 12.6695 20.053 12.6695C22.7648 12.6695 25.12 14.8084 25.3706 17.4988L25.4228 18.0593L27.0715 18.2857C27.9783 18.4103 28.923 18.533 29.1708 18.5585L29.6214 18.6049L29.7349 18.2209C29.7973 18.0097 29.9989 17.5878 30.183 17.2833L30.5177 16.7297ZM12.8067 15.2819C12.8553 15.2004 12.4792 14.9753 11.366 14.4194C10.5376 14.0056 9.8311 13.6673 9.79616 13.6676C9.76115 13.6679 9.64307 13.7992 9.53377 13.9594C9.42438 14.1195 9.18939 14.3818 9.01148 14.5422C8.83356 14.7026 8.68807 14.862 8.68824 14.8965C8.68841 14.931 9.15279 15.7403 9.7202 16.6949L10.7519 18.4306L11.7464 16.9114C12.2935 16.0758 12.7705 15.3426 12.8067 15.2819ZM24.0082 18.5369C24.2947 16.5532 22.9968 14.6443 21.0105 14.1281C18.1511 13.385 15.425 16.1048 16.1698 18.9576C16.7288 21.0991 18.9195 22.42 21.0105 21.8766C22.5977 21.4642 23.775 20.1526 24.0082 18.5369ZM14.8315 16.9602C14.8997 16.6393 14.9555 16.3376 14.9555 16.2898C14.9555 16.242 14.7568 16.1056 14.5138 15.9868L14.0722 15.7707L12.9052 17.5671C12.2633 18.555 11.6918 19.4476 11.6351 19.5506C11.5408 19.7218 11.7886 20.169 14.5506 24.8103C16.2108 27.6003 17.5775 29.8933 17.5876 29.9059C17.5977 29.9184 17.7799 29.8544 17.9924 29.7635C18.205 29.6726 18.6052 29.5516 18.8817 29.4947L19.3845 29.391V26.3396V23.2882L18.8622 23.1821C18.575 23.1238 18.0767 22.9492 17.755 22.7941C15.528 21.7209 14.3289 19.3279 14.8315 16.9602ZM38.6472 19.0606C38.2698 17.6148 37.1596 16.5037 35.7182 16.1291C32.8588 15.386 30.1327 18.1057 30.8775 20.9586C31.4365 23.1 33.6272 24.421 35.7182 23.8775C37.8584 23.3214 39.1885 21.1338 38.6472 19.0606ZM29.4125 19.9493L27.753 19.7213C25.2173 19.3731 25.1506 19.3686 25.1506 19.5452C25.1506 19.7994 24.5921 20.8551 24.1902 21.3606C23.4968 22.2328 22.3206 22.9587 21.2396 23.1815L20.7216 23.2882V26.3396V29.391L21.2396 29.4977C21.8691 29.6275 22.6257 29.9676 23.1861 30.3728L23.6034 30.6745L24.0298 30.237C24.4384 29.818 29.7189 24.2901 30.3139 23.6586L30.6011 23.3537L30.3354 22.9684C29.8173 22.2171 29.4177 21.0373 29.4139 20.2472L29.4125 19.9493ZM16.3683 30.4903C16.3129 30.3855 15.0278 28.2176 13.5124 25.6726C11.9971 23.1277 10.7448 21.0317 10.7296 21.0149C10.7006 20.9828 8.9493 23.6304 8.87936 23.8123C8.85696 23.8706 9.04933 24.1536 9.30697 24.4411C10.1408 25.372 10.6886 26.7565 10.6922 27.9429C10.6929 28.2056 10.6325 28.723 10.5578 29.0927C10.4832 29.4624 10.4361 29.7779 10.4533 29.7938C10.5218 29.857 15.2093 32.1757 15.2683 32.1755C15.303 32.1754 15.4353 32.0115 15.5622 31.8112C15.689 31.6108 15.9448 31.2746 16.1308 31.0639C16.433 30.7212 16.4581 30.6607 16.3683 30.4903ZM9.23184 28.9497C9.7731 26.8765 8.44297 24.689 6.30284 24.1328C3.44336 23.3897 0.717251 26.1095 1.46208 28.9623C2.02114 31.1038 4.21175 32.4247 6.30284 31.8813C7.74419 31.5067 8.85437 30.3955 9.23184 28.9497ZM23.9395 35.6195C24.4808 33.5463 23.1507 31.3588 21.0105 30.8026C18.9136 30.2577 16.7289 31.5798 16.1665 33.7341C15.6246 35.81 16.9586 37.9957 19.1081 38.5543C21.1921 39.0959 23.3787 37.7676 23.9395 35.6195ZM65.8317 29H68.1997L59.5917 6.6H57.2877L48.6797 29H51.0477L53.1277 23.496H63.7517L65.8317 29ZM53.9277 21.384L58.4397 9.384L62.9517 21.384H53.9277ZM70.7559 29H72.8679V5.64H70.7559V29ZM91.1097 13V16.136C89.6377 13.7893 87.483 12.616 84.6457 12.616C82.363 12.616 80.411 13.4267 78.7897 15.048C77.1897 16.6693 76.3897 18.6533 76.3897 21C76.3897 23.3467 77.1897 25.3307 78.7897 26.952C80.411 28.5733 82.363 29.384 84.6457 29.384C87.483 29.384 89.6377 28.2107 91.1097 25.864V28.36C91.1097 30.024 90.5763 31.336 89.5097 32.296C88.4643 33.256 87.0244 33.736 85.1897 33.736C82.331 33.736 80.4217 32.7653 79.4617 30.824L77.6057 31.88C78.9284 34.4827 81.4564 35.784 85.1897 35.784C87.387 35.784 89.275 35.1227 90.8537 33.8C92.4324 32.4773 93.2217 30.664 93.2217 28.36V13H91.1097ZM84.8057 27.336C83.035 27.336 81.5417 26.728 80.3257 25.512C79.1097 24.2533 78.5017 22.7493 78.5017 21C78.5017 19.2293 79.1097 17.736 80.3257 16.52C81.5417 15.2827 83.035 14.664 84.8057 14.664C86.5763 14.664 88.0697 15.2827 89.2857 16.52C90.5017 17.736 91.1097 19.2293 91.1097 21C91.1097 22.7493 90.5017 24.2533 89.2857 25.512C88.0697 26.728 86.5763 27.336 84.8057 27.336ZM105.149 29.384C107.475 29.384 109.459 28.584 111.101 26.984C112.744 25.3413 113.565 23.3467 113.565 21C113.565 18.632 112.744 16.648 111.101 15.048C109.48 13.4267 107.496 12.616 105.149 12.616C102.781 12.616 100.787 13.4267 99.1654 15.048C97.5441 16.648 96.7334 18.632 96.7334 21C96.7334 23.368 97.5441 25.3627 99.1654 26.984C100.787 28.584 102.781 29.384 105.149 29.384ZM105.149 27.336C103.379 27.336 101.885 26.728 100.669 25.512C99.4534 24.2533 98.8454 22.7493 98.8454 21C98.8454 19.2293 99.4534 17.736 100.669 16.52C101.885 15.2827 103.379 14.664 105.149 14.664C106.92 14.664 108.413 15.2827 109.629 16.52C110.845 17.736 111.453 19.2293 111.453 21C111.453 22.7493 110.845 24.2533 109.629 25.512C108.413 26.728 106.92 27.336 105.149 27.336ZM137.9 6.6H135.116L127.66 19.08L120.204 6.6H117.42V29H119.66V9.992L127.5 23.112H127.82L135.66 9.992V29H137.9V6.6ZM156.453 13V16.136C154.981 13.7893 152.827 12.616 149.989 12.616C147.707 12.616 145.755 13.4267 144.133 15.048C142.533 16.6693 141.733 18.6533 141.733 21C141.733 23.3467 142.533 25.3307 144.133 26.952C145.755 28.5733 147.707 29.384 149.989 29.384C152.827 29.384 154.981 28.2107 156.453 25.864V29H158.565V13H156.453ZM150.149 27.336C148.379 27.336 146.885 26.728 145.669 25.512C144.453 24.2533 143.845 22.7493 143.845 21C143.845 19.2293 144.453 17.736 145.669 16.52C146.885 15.2827 148.379 14.664 150.149 14.664C151.92 14.664 153.413 15.2827 154.629 16.52C155.845 17.736 156.453 19.2293 156.453 21C156.453 22.7493 155.845 24.2533 154.629 25.512C153.413 26.728 151.92 27.336 150.149 27.336ZM163.037 29H165.149V5.64H163.037V29ZM183.391 13V16.136C181.919 13.7893 179.764 12.616 176.927 12.616C174.644 12.616 172.692 13.4267 171.071 15.048C169.471 16.6693 168.671 18.6533 168.671 21C168.671 23.3467 169.471 25.3307 171.071 26.952C172.692 28.5733 174.644 29.384 176.927 29.384C179.764 29.384 181.919 28.2107 183.391 25.864V28.36C183.391 30.024 182.858 31.336 181.791 32.296C180.746 33.256 179.306 33.736 177.471 33.736C174.612 33.736 172.703 32.7653 171.743 30.824L169.887 31.88C171.21 34.4827 173.738 35.784 177.471 35.784C179.668 35.784 181.556 35.1227 183.135 33.8C184.714 32.4773 185.503 30.664 185.503 28.36V13H183.391ZM177.087 27.336C175.316 27.336 173.823 26.728 172.607 25.512C171.391 24.2533 170.783 22.7493 170.783 21C170.783 19.2293 171.391 17.736 172.607 16.52C173.823 15.2827 175.316 14.664 177.087 14.664C178.858 14.664 180.351 15.2827 181.567 16.52C182.783 17.736 183.391 19.2293 183.391 21C183.391 22.7493 182.783 24.2533 181.567 25.512C180.351 26.728 178.858 27.336 177.087 27.336ZM197.431 29.384C199.756 29.384 201.74 28.584 203.383 26.984C205.025 25.3413 205.847 23.3467 205.847 21C205.847 18.632 205.025 16.648 203.383 15.048C201.761 13.4267 199.777 12.616 197.431 12.616C195.063 12.616 193.068 13.4267 191.447 15.048C189.825 16.648 189.015 18.632 189.015 21C189.015 23.368 189.825 25.3627 191.447 26.984C193.068 28.584 195.063 29.384 197.431 29.384ZM197.431 27.336C195.66 27.336 194.167 26.728 192.951 25.512C191.735 24.2533 191.127 22.7493 191.127 21C191.127 19.2293 191.735 17.736 192.951 16.52C194.167 15.2827 195.66 14.664 197.431 14.664C199.201 14.664 200.695 15.2827 201.911 16.52C203.127 17.736 203.735 19.2293 203.735 21C203.735 22.7493 203.127 24.2533 201.911 25.512C200.695 26.728 199.201 27.336 197.431 27.336Z" fill="url(#paint0_linear_11_75)"/>
    <defs>
        <linearGradient id="paint0_linear_11_75" x1="0" y1="0" x2="13.2719" y2="74.3676" gradientUnits="userSpaceOnUse">
            <stop stop-color="#4299E1"/>
            <stop offset="1" stop-color="#0079DD"/>
        </linearGradient>
    </defs>
</svg>